<svg xmlns="http://www.w3.org/2000/svg"  viewBox="0 0 100 100" width="100px" height="100px"><path fill="#c7ede6" d="M87.215,55.71C88.35,53.555,89,51.105,89,48.5c0-6.621-4.159-12.257-10.001-14.478 C78.999,34.015,79,34.008,79,34c0-11.598-9.402-21-21-21c-9.784,0-17.981,6.701-20.313,15.757C36.211,28.272,34.638,28,33,28 c-7.692,0-14.023,5.793-14.89,13.252C12.906,42.353,9,46.969,9,52.5C9,58.851,14.149,64,20.5,64c0.177,0,0.352-0.012,0.526-0.022 C21.022,64.153,21,64.324,21,64.5C21,75.822,30.178,85,41.5,85c6.437,0,12.175-2.972,15.934-7.614C59.612,79.611,62.64,81,66,81 c4.65,0,8.674-2.65,10.666-6.518C77.718,74.817,78.837,75,80,75c6.075,0,11-4.925,11-11C91,60.689,89.53,57.727,87.215,55.71z"/><path fill="#fdfcef" d="M69.5,33.5V34h-3v-0.5c0,0-4.242,0-5.5,0c-2.485,0-4.5-2.015-4.5-4.5 c0-2.333,1.782-4.229,4.055-4.455C60.533,24.364,60.5,24.187,60.5,24c0-2.485,2.015-4.5,4.5-4.5c1.438,0,2.703,0.686,3.527,1.736 C68.667,18.6,70.829,16.5,73.5,16.5c2.761,0,5,2.239,5,5c0,0.446-0.077,0.87-0.187,1.282c0.642-0.777,1.6-1.282,2.687-1.282 c1.781,0,3.234,1.335,3.455,3.055C84.636,24.533,84.813,24.5,85,24.5c2.485,0,4.5,2.015,4.5,4.5s-2.015,4.5-4.5,4.5s-9.5,0-9.5,0 H69.5z"/><path fill="#472b29" d="M73.5,16c3.033,0,5.5,2.467,5.5,5.5c0,0.016,0,0.031,0,0.047C79.602,21.192,80.29,21,81,21 c1.831,0,3.411,1.261,3.858,3.005C84.905,24.002,84.952,24,85,24c2.757,0,5,2.243,5,5s-2.243,5-5,5H69.5 c-0.276,0-0.5-0.224-0.5-0.5s0.224-0.5,0.5-0.5H85c2.206,0,4-1.794,4-4s-1.794-4-4-4c-0.117,0-0.23,0.017-0.343,0.032 l-0.141,0.019c-0.021,0.003-0.041,0.004-0.062,0.004c-0.246,0-0.462-0.185-0.495-0.437C83.768,23.125,82.496,22,81,22 c-0.885,0-1.723,0.401-2.301,1.1c-0.098,0.118-0.241,0.182-0.386,0.182c-0.078,0-0.156-0.018-0.228-0.056 c-0.209-0.107-0.314-0.346-0.254-0.573C77.946,22.218,78,21.852,78,21.5c0-2.481-2.019-4.5-4.5-4.5 c-2.381,0-4.347,1.872-4.474,4.263c-0.011,0.208-0.15,0.387-0.349,0.45c-0.05,0.016-0.101,0.024-0.152,0.024 c-0.15,0-0.296-0.069-0.392-0.192C67.362,20.563,66.221,20,65,20c-2.206,0-4,1.794-4,4c0,0.117,0.017,0.23,0.032,0.343 l0.019,0.141c0.016,0.134-0.022,0.268-0.106,0.373c-0.084,0.105-0.207,0.172-0.34,0.185C58.549,25.247,57,26.949,57,29 c0,2.206,1.794,4,4,4h5.5c0.276,0,0.5,0.224,0.5,0.5S66.776,34,66.5,34H61c-2.757,0-5-2.243-5-5c0-2.397,1.689-4.413,4.003-4.877 C60.001,24.082,60,24.041,60,24c0-2.757,2.243-5,5-5c1.176,0,2.293,0.416,3.183,1.164C68.781,17.76,70.945,16,73.5,16L73.5,16z"/><path fill="#472b29" d="M75,23c1.403,0,2.609,0.999,2.913,2.341C78.28,25.119,78.699,25,79.125,25 c1.202,0,2.198,0.897,2.353,2.068C81.681,27.022,81.874,27,82.063,27c1.529,0,2.811,1.2,2.918,2.732 C84.99,29.87,84.886,29.99,84.749,30c-0.006,0-0.012,0-0.018,0c-0.13,0-0.24-0.101-0.249-0.232 c-0.089-1.271-1.151-2.268-2.419-2.268c-0.229,0-0.47,0.042-0.738,0.127c-0.022,0.007-0.045,0.01-0.067,0.01 c-0.055,0-0.11-0.02-0.156-0.054C81.038,27.537,81,27.455,81,27.375c0-1.034-0.841-1.875-1.875-1.875 c-0.447,0-0.885,0.168-1.231,0.473c-0.047,0.041-0.106,0.063-0.165,0.063c-0.032,0-0.063-0.006-0.093-0.019 c-0.088-0.035-0.148-0.117-0.155-0.212C77.377,24.512,76.288,23.5,75,23.5c-0.208,0-0.425,0.034-0.682,0.107 c-0.023,0.007-0.047,0.01-0.07,0.01c-0.109,0-0.207-0.073-0.239-0.182c-0.038-0.133,0.039-0.271,0.172-0.309 C74.483,23.04,74.744,23,75,23L75,23z"/><path fill="#472b29" d="M61.117,24.5c1.326,0,2.508,0.897,2.874,2.182c0.038,0.133-0.039,0.271-0.172,0.309 C63.795,26.997,63.772,27,63.75,27c-0.109,0-0.209-0.072-0.24-0.182C63.205,25.748,62.221,25,61.117,25 c-0.117,0-0.23,0.014-0.342,0.029c-0.012,0.002-0.023,0.003-0.035,0.003c-0.121,0-0.229-0.092-0.246-0.217 c-0.019-0.137,0.077-0.263,0.214-0.281C60.842,24.516,60.978,24.5,61.117,24.5L61.117,24.5z"/><path fill="#ef9922" d="M68.625,74h-31.25C33.854,74,31,71.146,31,67.625v-31.25C31,32.854,33.854,30,37.375,30h31.25 C72.146,30,75,32.854,75,36.375v31.25C75,71.146,72.146,74,68.625,74z"/><path fill="#472b29" d="M68.625,74.7h-31.25c-3.901,0-7.075-3.174-7.075-7.075v-31.25c0-3.901,3.174-7.075,7.075-7.075 h31.25c3.901,0,7.075,3.174,7.075,7.075v31.25C75.7,71.526,72.526,74.7,68.625,74.7z M37.375,30.7 c-3.129,0-5.675,2.546-5.675,5.675v31.25c0,3.129,2.545,5.675,5.675,5.675h31.25c3.129,0,5.675-2.546,5.675-5.675v-31.25 c0-3.129-2.545-5.675-5.675-5.675H37.375z"/><path fill="#472b29" d="M61.5,33.5H55c-0.276,0-0.5-0.224-0.5-0.5s0.224-0.5,0.5-0.5h6.5c0.276,0,0.5,0.224,0.5,0.5 S61.776,33.5,61.5,33.5z"/><path fill="#472b29" d="M34,41.262c-0.276,0-0.5-0.224-0.5-0.5v-4.27c0-2.201,1.942-3.992,4.33-3.992h13.735 c0.276,0,0.5,0.224,0.5,0.5s-0.224,0.5-0.5,0.5H37.83c-1.836,0-3.33,1.342-3.33,2.992v4.27C34.5,41.038,34.276,41.262,34,41.262z"/><path fill="#472b29" d="M72,58c-0.276,0-0.5-0.224-0.5-0.5V36.492c0-1.65-1.171-2.992-2.611-2.992h-3.312 c-0.276,0-0.5-0.224-0.5-0.5s0.224-0.5,0.5-0.5h3.312c1.991,0,3.611,1.791,3.611,3.992V57.5C72.5,57.776,72.276,58,72,58z"/><path fill="#472b29" d="M47.625,71.5h-9.849c-2.358,0-4.276-1.791-4.276-3.992V46.5c0-0.276,0.224-0.5,0.5-0.5 s0.5,0.224,0.5,0.5v21.008c0,1.65,1.47,2.992,3.276,2.992h9.849c0.276,0,0.5,0.224,0.5,0.5S47.901,71.5,47.625,71.5z"/><path fill="#472b29" d="M68.224,71.5H50.625c-0.276,0-0.5-0.224-0.5-0.5s0.224-0.5,0.5-0.5h17.599 c1.806,0,3.276-1.342,3.276-2.992v-6.27c0-0.276,0.224-0.5,0.5-0.5s0.5,0.224,0.5,0.5v6.27C72.5,69.709,70.582,71.5,68.224,71.5z"/><path fill="#fff" d="M15.5,45h-10C5.224,45,5,44.776,5,44.5S5.224,44,5.5,44h10c0.276,0,0.5,0.224,0.5,0.5 S15.777,45,15.5,45z"/><path fill="#fff" d="M18.5,45h-1c-0.276,0-0.5-0.224-0.5-0.5s0.224-0.5,0.5-0.5h1c0.276,0,0.5,0.224,0.5,0.5 S18.777,45,18.5,45z"/><path fill="#fff" d="M23.491,47H14.5c-0.276,0-0.5-0.224-0.5-0.5s0.224-0.5,0.5-0.5h8.991c0.276,0,0.5,0.224,0.5,0.5 S23.767,47,23.491,47z"/><path fill="#fff" d="M12.5,47h-1c-0.276,0-0.5-0.224-0.5-0.5s0.224-0.5,0.5-0.5h1c0.276,0,0.5,0.224,0.5,0.5 S12.777,47,12.5,47z"/><path fill="#fff" d="M9.5,47h-2C7.224,47,7,46.776,7,46.5S7.224,46,7.5,46h2c0.276,0,0.5,0.224,0.5,0.5 S9.777,47,9.5,47z"/><path fill="#fff" d="M15.5,49h-2c-0.276,0-0.5-0.224-0.5-0.5s0.224-0.5,0.5-0.5h2c0.276,0,0.5,0.224,0.5,0.5 S15.776,49,15.5,49z"/><path fill="#fff" d="M18.5,40c-0.177,0-0.823,0-1,0c-0.276,0-0.5,0.224-0.5,0.5c0,0.276,0.224,0.5,0.5,0.5 c0.177,0,0.823,0,1,0c0.276,0,0.5-0.224,0.5-0.5C19,40.224,18.776,40,18.5,40z"/><path fill="#fff" d="M18.5,42c-0.177,0-4.823,0-5,0c-0.276,0-0.5,0.224-0.5,0.5c0,0.276,0.224,0.5,0.5,0.5 c0.177,0,4.823,0,5,0c0.276,0,0.5-0.224,0.5-0.5C19,42.224,18.776,42,18.5,42z"/><path fill="#fff" d="M23.5,44c-0.177,0-2.823,0-3,0c-0.276,0-0.5,0.224-0.5,0.5c0,0.276,0.224,0.5,0.5,0.5 c0.177,0,2.823,0,3,0c0.276,0,0.5-0.224,0.5-0.5C24,44.224,23.776,44,23.5,44z"/><g><path fill="#fff" d="M86.5,69h-10c-0.276,0-0.5-0.224-0.5-0.5s0.224-0.5,0.5-0.5h10c0.276,0,0.5,0.224,0.5,0.5 S86.776,69,86.5,69z"/><path fill="#fff" d="M90.5,69h-2c-0.276,0-0.5-0.224-0.5-0.5s0.224-0.5,0.5-0.5h2c0.276,0,0.5,0.224,0.5,0.5 S90.776,69,90.5,69z"/><path fill="#fff" d="M95.5,71h-10c-0.276,0-0.5-0.224-0.5-0.5s0.224-0.5,0.5-0.5h10c0.276,0,0.5,0.224,0.5,0.5 S95.777,71,95.5,71z"/><path fill="#fff" d="M83.5,71h-1c-0.276,0-0.5-0.224-0.5-0.5s0.224-0.5,0.5-0.5h1c0.276,0,0.5,0.224,0.5,0.5 S83.776,71,83.5,71z"/><path fill="#fff" d="M80.47,71H78.5c-0.276,0-0.5-0.224-0.5-0.5s0.224-0.5,0.5-0.5h1.97c0.276,0,0.5,0.224,0.5,0.5 S80.746,71,80.47,71z"/><path fill="#fff" d="M89.5,67h-5c-0.276,0-0.5-0.224-0.5-0.5s0.224-0.5,0.5-0.5h5c0.276,0,0.5,0.224,0.5,0.5 S89.777,67,89.5,67z"/><path fill="#fff" d="M86.5,73h-2c-0.276,0-0.5-0.224-0.5-0.5s0.224-0.5,0.5-0.5h2c0.276,0,0.5,0.224,0.5,0.5 S86.776,73,86.5,73z"/></g><g><path fill="#fdfcef" d="M17.5,65.5c0,0-1.567,0-3.5,0s-3.5-1.567-3.5-3.5c0-1.781,1.335-3.234,3.055-3.455 C13.527,58.366,13.5,58.187,13.5,58c0-1.933,1.567-3.5,3.5-3.5c1.032,0,1.95,0.455,2.59,1.165 c0.384-1.808,1.987-3.165,3.91-3.165c2.209,0,4,1.791,4,4c0,0.191-0.03,0.374-0.056,0.558C27.872,56.714,28.408,56.5,29,56.5 c1.228,0,2.245,0.887,2.455,2.055C31.634,58.527,31.813,58.5,32,58.5c1.933,0,3.5,1.567,3.5,3.5s-1.567,3.5-3.5,3.5s-7.5,0-7.5,0 V66h-7V65.5z"/><path fill="#472b29" d="M15.75,61c0.138,0,0.25-0.112,0.25-0.25c0-1.223-0.995-2.218-2.218-2.218 c-0.034,0.009-0.737-0.001-1.244,0.136c-0.133,0.036-0.212,0.173-0.176,0.306c0.036,0.134,0.173,0.213,0.306,0.176 c0.444-0.12,1.1-0.12,1.113-0.118c0.948,0,1.719,0.771,1.719,1.718C15.5,60.888,15.612,61,15.75,61z"/><circle cx="22.5" cy="65.5" r=".5" fill="#472b29"/><path fill="#472b29" d="M14,66h3.5c0.276,0,0.5-0.224,0.5-0.5S17.776,65,17.5,65H14c-1.654,0-3-1.346-3-3 c0-1.496,1.125-2.768,2.618-2.959c0.134-0.018,0.255-0.088,0.336-0.196s0.115-0.244,0.094-0.377C14.025,58.314,14,58.16,14,58 c0-1.654,1.346-3,3-3c0.85,0,1.638,0.355,2.219,1c0.125,0.139,0.321,0.198,0.5,0.148c0.182-0.049,0.321-0.195,0.36-0.379 C20.42,54.165,21.859,53,23.5,53c1.93,0,3.5,1.57,3.5,3.5c0,0.143-0.021,0.28-0.041,0.418c-0.029,0.203,0.063,0.438,0.242,0.54 c0.179,0.102,0.396,0.118,0.556-0.01C28.122,57.155,28.551,57,29,57c0.966,0,1.792,0.691,1.963,1.644 c0.048,0.267,0.296,0.446,0.569,0.405C31.686,59.025,31.84,59,32,59c1.654,0,3,1.346,3,3s-1.346,3-3,3h-7.5 c-0.276,0-0.5,0.224-0.5,0.5s0.224,0.5,0.5,0.5H32c2.206,0,4-1.794,4-4s-1.794-4-4-4c-0.059,0-0.116,0.002-0.174,0.006 C31.412,56.82,30.289,56,29,56c-0.349,0-0.689,0.061-1.011,0.18C27.824,53.847,25.874,52,23.5,52 c-1.831,0-3.466,1.127-4.153,2.774C18.667,54.276,17.845,54,17,54c-2.206,0-4,1.794-4,4c0,0.048,0.001,0.095,0.004,0.142 C11.261,58.59,10,60.169,10,62C10,64.206,11.794,66,14,66z"/><path fill="#472b29" d="M19.5,65c0.159,0,0.841,0,1,0c0.276,0,0.5,0.224,0.5,0.5c0,0.276-0.224,0.5-0.5,0.5 c-0.159,0-0.841,0-1,0c-0.276,0-0.5-0.224-0.5-0.5C19,65.224,19.224,65,19.5,65z"/></g><g><path fill="#fff" stroke="#472b29" stroke-linecap="round" stroke-linejoin="round" stroke-miterlimit="10" stroke-width=".5" d="M40.825,58.071c0-0.07,0-0.139,0.023-0.209l4.619-15.039c0.186-0.557,0.858-0.835,1.555-0.835s1.393,0.279,1.578,0.835 l4.596,15.039c0.023,0.07,0.046,0.139,0.046,0.209c0,0.58-0.859,1.021-1.555,1.021c-0.395,0-0.719-0.139-0.835-0.51L49.9,55.286 h-5.732l-0.952,3.296c-0.116,0.371-0.441,0.51-0.858,0.51C41.684,59.093,40.825,58.675,40.825,58.071z M49.343,53.313l-2.321-7.96 l-2.321,7.96H49.343z"/><path fill="#fff" stroke="#472b29" stroke-linecap="round" stroke-linejoin="round" stroke-miterlimit="10" stroke-width=".5" d="M57.261,58.28c0,0.395-0.58,0.812-1.23,0.812c-0.72,0-1.207-0.418-1.207-0.812v-9.399c0-0.464,0.487-0.789,1.207-0.789 c0.604,0,1.091,0.325,1.091,0.789v0.835c0.464-0.905,1.555-1.764,3.11-1.764c2.182,0,4.038,2.066,4.038,4.572v5.756 c0,0.534-0.603,0.812-1.23,0.812c-0.557,0-1.207-0.279-1.207-0.812v-5.756c0-1.207-1.044-2.414-2.344-2.414 c-1.114,0-2.228,0.905-2.228,2.414V58.28z"/></g></svg>