<svg xmlns="http://www.w3.org/2000/svg"  viewBox="0 0 100 100" width="100px" height="100px"><path fill="#c7ede6" d="M88.466,55.879c0.3-0.616,0.566-1.264,0.796-1.943c2.633-7.77-1.349-17.078-9.733-19.325c-0.906-11.384-8.906-19.193-17.941-20.526c-10.341-1.525-19.814,5.044-22.966,15.485c-3.799-1.346-7.501-1.182-10.99,0.857c-1.583,0.732-3.031,1.812-4.33,3.233c-1.907,2.086-3.147,4.719-3.652,7.495c-0.748,0.118-1.483,0.236-2.176,0.484c-4.04,1.449-6.589,4.431-7.288,8.923c-0.435,2.797,0.443,5.587,0.933,6.714c1.935,4.455,6.422,6.98,10.981,6.312c0.227-0.033,0.557,0.069,0.752,0.233c0.241,7.12,3.698,13.417,8.884,17.014c8.321,5.772,19.027,3.994,25.781-3.921c2.894,2.96,6.338,4.398,10.384,3.876c4.023-0.519,7.147-2.739,9.426-6.349c1.053,0.283,2.051,0.691,3.083,0.804c4.042,0.442,7.324-1.165,9.732-4.8c0.922-1.391,1.794-3.194,1.793-6.354C91.936,60.836,90.643,57.869,88.466,55.879z"/><path fill="#fdfcef" d="M76.031,50.803c0,0,11.691,0,11.762,0c2.7,0,4.888-2.189,4.888-4.889c0-2.355-1.666-4.321-3.884-4.784c0.026-0.206,0.043-0.415,0.043-0.628c0-2.796-2.267-5.063-5.063-5.063c-1.651,0-3.113,0.794-4.037,2.017c-0.236-3.113-3.017-5.514-6.27-5.116c-2.379,0.291-4.346,2.13-4.784,4.486c-0.14,0.756-0.126,1.489,0.014,2.177c-0.638-0.687-1.546-1.119-2.557-1.119c-1.85,0-3.361,1.441-3.48,3.261c-0.84-0.186-1.754-0.174-2.717,0.188c-1.84,0.691-3.15,2.423-3.227,4.387c-0.109,2.789,2.12,5.085,4.885,5.085c0.21,0,0.948,0,1.118,0h10.151"/><path fill="#472b29" d="M87.793,51.304H76.031c-0.276,0-0.5-0.224-0.5-0.5s0.224-0.5,0.5-0.5h11.762c2.42,0,4.389-1.969,4.389-4.389c0-2.067-1.466-3.873-3.486-4.295c-0.255-0.053-0.426-0.293-0.394-0.552c0.023-0.186,0.039-0.373,0.039-0.565c0-2.516-2.047-4.563-4.562-4.563c-1.439,0-2.765,0.663-3.638,1.818c-0.125,0.167-0.338,0.239-0.54,0.178c-0.199-0.059-0.342-0.234-0.357-0.441c-0.104-1.377-0.779-2.671-1.85-3.549c-1.083-0.887-2.454-1.282-3.86-1.109c-2.166,0.265-3.956,1.943-4.353,4.081c-0.124,0.667-0.12,1.336,0.013,1.987c0.044,0.22-0.062,0.442-0.262,0.544c-0.2,0.102-0.442,0.059-0.595-0.104c-0.574-0.619-1.352-0.959-2.19-0.959c-1.569,0-2.878,1.227-2.981,2.793c-0.01,0.146-0.082,0.28-0.199,0.367c-0.117,0.087-0.267,0.118-0.408,0.088c-0.841-0.186-1.638-0.131-2.433,0.167c-1.669,0.626-2.835,2.209-2.903,3.938c-0.047,1.208,0.387,2.351,1.222,3.219c0.835,0.869,1.958,1.347,3.163,1.347h11.269c0.276,0,0.5,0.224,0.5,0.5s-0.224,0.5-0.5,0.5H61.605c-1.479,0-2.858-0.587-3.884-1.653c-1.025-1.066-1.558-2.469-1.5-3.951c0.083-2.126,1.51-4.069,3.55-4.835c0.8-0.3,1.628-0.401,2.468-0.298c0.377-1.823,1.998-3.182,3.905-3.182c0.685,0,1.354,0.179,1.944,0.51c0-0.386,0.035-0.773,0.106-1.16c0.477-2.562,2.621-4.573,5.215-4.89c1.679-0.207,3.32,0.266,4.615,1.328c1.004,0.823,1.716,1.951,2.038,3.193c1.012-0.916,2.319-1.425,3.714-1.425c3.067,0,5.562,2.496,5.562,5.563c0,0.083-0.002,0.166-0.007,0.249c2.254,0.673,3.848,2.777,3.848,5.164C93.181,48.886,90.764,51.304,87.793,51.304z"/><path fill="#fdfcef" d="M73.198,40.035c-1.808-0.119-3.365,1.13-3.476,2.789c-0.014,0.206-0.005,0.409,0.025,0.606c-0.349-0.394-0.865-0.661-1.458-0.7c-1.085-0.071-2.022,0.645-2.158,1.62c-0.197-0.054-0.403-0.09-0.616-0.104c-1.582-0.104-2.944,0.989-3.042,2.441"/><path fill="#472b29" d="M62.473,46.936c-0.005,0-0.011,0-0.017,0c-0.138-0.009-0.242-0.128-0.233-0.266c0.106-1.587,1.585-2.794,3.308-2.674c0.136,0.009,0.272,0.027,0.409,0.053c0.274-0.968,1.256-1.643,2.366-1.568c0.425,0.028,0.824,0.161,1.164,0.382c0-0.019,0.002-0.037,0.003-0.056c0.121-1.793,1.796-3.139,3.742-3.022c0.138,0.009,0.242,0.128,0.233,0.266c-0.009,0.137-0.124,0.246-0.266,0.233c-1.671-0.115-3.108,1.037-3.21,2.556c-0.012,0.184-0.004,0.37,0.023,0.553c0.017,0.109-0.041,0.217-0.141,0.264s-0.22,0.023-0.293-0.061c-0.317-0.358-0.787-0.583-1.288-0.616c-0.938-0.062-1.775,0.555-1.894,1.405c-0.01,0.071-0.05,0.134-0.11,0.174c-0.06,0.04-0.133,0.051-0.204,0.033c-0.188-0.051-0.379-0.084-0.567-0.096c-1.429-0.1-2.687,0.896-2.776,2.208C62.714,46.835,62.604,46.936,62.473,46.936z"/><path fill="#fdfcef" d="M89.772,41.703c-1.699-0.801-3.664-0.234-4.389,1.267c-0.09,0.186-0.157,0.379-0.201,0.574"/><path fill="#472b29" d="M85.182,43.793c-0.018,0-0.037-0.002-0.056-0.006c-0.135-0.031-0.219-0.165-0.188-0.299c0.049-0.215,0.123-0.426,0.219-0.626c0.783-1.622,2.901-2.243,4.721-1.384c0.125,0.059,0.179,0.208,0.12,0.333c-0.059,0.125-0.209,0.178-0.333,0.12c-1.575-0.741-3.393-0.226-4.058,1.149c-0.08,0.166-0.141,0.341-0.182,0.52C85.4,43.715,85.297,43.793,85.182,43.793z"/><g><path fill="#fff" d="M18.132 47.915H8.101c-.276 0-.5-.224-.5-.5s.224-.5.5-.5h10.031c.276 0 .5.224.5.5S18.408 47.915 18.132 47.915zM21.012 47.915h-1.446c-.276 0-.5-.224-.5-.5s.224-.5.5-.5h1.446c.276 0 .5.224.5.5S21.289 47.915 21.012 47.915zM25.067 47.915h-2.546c-.276 0-.5-.224-.5-.5s.224-.5.5-.5h2.546c.276 0 .5.224.5.5S25.344 47.915 25.067 47.915zM25.067 49.78h-9.616c-.276 0-.5-.224-.5-.5s.224-.5.5-.5h9.616c.276 0 .5.224.5.5S25.344 49.78 25.067 49.78zM13.719 49.78h-.58c-.276 0-.5-.224-.5-.5s.224-.5.5-.5h.58c.276 0 .5.224.5.5S13.995 49.78 13.719 49.78zM11.343 49.78H9.886c-.276 0-.5-.224-.5-.5s.224-.5.5-.5h1.457c.276 0 .5.224.5.5S11.619 49.78 11.343 49.78zM20.478 46.05h-5.027c-.276 0-.5-.224-.5-.5s.224-.5.5-.5h5.027c.276 0 .5.224.5.5S20.755 46.05 20.478 46.05zM20.478 44.186h-1.257c-.276 0-.5-.224-.5-.5s.224-.5.5-.5h1.257c.276 0 .5.224.5.5S20.755 44.186 20.478 44.186zM17.209 51.645h-1.758c-.276 0-.5-.224-.5-.5s.224-.5.5-.5h1.758c.276 0 .5.224.5.5S17.486 51.645 17.209 51.645z"/></g><g><path fill="#fff" d="M71.309 21.638h-10.03c-.276 0-.5-.224-.5-.5s.224-.5.5-.5h10.03c.276 0 .5.224.5.5S71.586 21.638 71.309 21.638zM74.191 21.638h-1.446c-.276 0-.5-.224-.5-.5s.224-.5.5-.5h1.446c.276 0 .5.224.5.5S74.467 21.638 74.191 21.638zM78.245 21.638h-2.546c-.276 0-.5-.224-.5-.5s.224-.5.5-.5h2.546c.276 0 .5.224.5.5S78.521 21.638 78.245 21.638zM76.219 17.909h-9.616c-.276 0-.5-.224-.5-.5s.224-.5.5-.5h9.616c.276 0 .5.224.5.5S76.495 17.909 76.219 17.909zM64.871 17.909h-.58c-.276 0-.5-.224-.5-.5s.224-.5.5-.5h.58c.276 0 .5.224.5.5S65.148 17.909 64.871 17.909zM62.494 17.909h-1.456c-.276 0-.5-.224-.5-.5s.224-.5.5-.5h1.456c.276 0 .5.224.5.5S62.771 17.909 62.494 17.909zM73.656 19.773h-5.027c-.276 0-.5-.224-.5-.5s.224-.5.5-.5h5.027c.276 0 .5.224.5.5S73.932 19.773 73.656 19.773z"/><path fill="#fff" d="M73.656 17.909h-1.257c-.276 0-.5-.224-.5-.5s.224-.5.5-.5h1.257c.276 0 .5.224.5.5S73.932 17.909 73.656 17.909zM67.174 19.773h-1.759c-.276 0-.5-.224-.5-.5s.224-.5.5-.5h1.759c.276 0 .5.224.5.5S67.45 19.773 67.174 19.773z"/></g><g><path fill="#f4989e" d="M66.18,75.457H36.467c-3.766,0-6.847-3.081-6.847-6.847V38.897c0-3.766,3.081-6.847,6.847-6.847H66.18c3.766,0,6.847,3.081,6.847,6.847V68.61C73.028,72.376,69.946,75.457,66.18,75.457z"/><path fill="#472b29" d="M66.18,76.158H36.467c-4.162,0-7.547-3.386-7.547-7.547V38.897c0-4.162,3.386-7.547,7.547-7.547H66.18c4.162,0,7.547,3.386,7.547,7.547V68.61C73.728,72.772,70.342,76.158,66.18,76.158z M36.467,32.75c-3.39,0-6.147,2.757-6.147,6.147V68.61c0,3.39,2.757,6.147,6.147,6.147H66.18c3.39,0,6.147-2.757,6.147-6.147V38.897c0-3.39-2.757-6.147-6.147-6.147H36.467z"/><path fill="#472b29" d="M64.273 72.707H38.375c-3.311 0-6.004-2.694-6.004-6.004V40.805c0-3.311 2.694-6.004 6.004-6.004h24.662c.193 0 .35.157.35.35s-.157.35-.35.35H38.375c-2.925 0-5.304 2.379-5.304 5.304v25.898c0 2.925 2.379 5.304 5.304 5.304h25.898c2.925 0 5.304-2.379 5.304-5.304V52.375c0-.193.157-.35.35-.35s.35.157.35.35v14.327C70.277 70.013 67.583 72.707 64.273 72.707zM69.927 50.659c-.193 0-.35-.157-.35-.35v-2.756c0-.193.157-.35.35-.35s.35.157.35.35v2.756C70.277 50.502 70.12 50.659 69.927 50.659z"/><g><path fill="#472b29" d="M69.927,46.525c-0.193,0-0.35-0.157-0.35-0.35v-1.378c0-0.193,0.157-0.35,0.35-0.35s0.35,0.157,0.35,0.35v1.378C70.277,46.368,70.12,46.525,69.927,46.525z"/></g><g><path fill="#fdfcee" d="M45.575,62.255h-2.162v-15.65h2.162V62.255z"/><path fill="#472b29" d="M45.575,62.555h-2.162c-0.166,0-0.3-0.134-0.3-0.3v-15.65c0-0.166,0.134-0.3,0.3-0.3h2.162c0.166,0,0.3,0.134,0.3,0.3v15.65C45.874,62.42,45.74,62.555,45.575,62.555z M43.713,61.955h1.562v-15.05h-1.562V61.955z"/><g><path fill="#fdfcee" d="M58.592,62.255h-1.997v-1.551c-0.423,0.502-0.932,0.924-1.528,1.269c-0.595,0.344-1.316,0.517-2.162,0.517c-0.658,0-1.254-0.142-1.786-0.424c-0.533-0.283-0.995-0.683-1.386-1.201c-0.392-0.518-0.693-1.13-0.905-1.836c-0.211-0.707-0.317-1.483-0.317-2.331c0-0.941,0.145-1.785,0.435-2.531c0.29-0.745,0.693-1.373,1.21-1.884c0.517-0.51,1.124-0.899,1.821-1.165c0.697-0.267,1.453-0.4,2.268-0.4c0.454,0,0.858,0.028,1.21,0.084c0.353,0.055,0.693,0.131,1.022,0.226v-5.362h2.115V62.255z M53.493,60.775c0.673,0,1.261-0.164,1.762-0.492c0.501-0.328,0.908-0.68,1.222-1.055v-6.49c-0.266-0.11-0.572-0.187-0.916-0.235c-0.345-0.047-0.705-0.07-1.081-0.07c-1.175,0-2.111,0.367-2.808,1.101c-0.697,0.734-1.046,1.789-1.046,3.163c0,1.235,0.231,2.223,0.693,2.965C51.781,60.404,52.506,60.775,53.493,60.775z"/><path fill="#472b29" d="M52.906,62.79c-0.705,0-1.353-0.154-1.926-0.459c-0.569-0.302-1.069-0.734-1.485-1.285c-0.411-0.542-0.731-1.192-0.953-1.931c-0.219-0.733-0.33-1.546-0.33-2.417c0-0.976,0.153-1.864,0.455-2.64c0.304-0.781,0.735-1.45,1.279-1.988c0.545-0.538,1.193-0.953,1.925-1.232c0.727-0.279,1.526-0.42,2.375-0.42c0.468,0,0.891,0.029,1.257,0.087c0.229,0.036,0.455,0.081,0.675,0.133v-4.973c0-0.166,0.134-0.3,0.3-0.3h2.115c0.166,0,0.3,0.134,0.3,0.3v16.59c0,0.166-0.134,0.3-0.3,0.3h-1.997c-0.166,0-0.3-0.134-0.3-0.3v-0.808c-0.324,0.295-0.685,0.559-1.077,0.786C54.578,62.603,53.8,62.79,52.906,62.79z M54.245,51.017c-0.775,0-1.502,0.128-2.161,0.381c-0.654,0.25-1.232,0.619-1.717,1.098c-0.484,0.479-0.869,1.077-1.142,1.779c-0.275,0.707-0.415,1.521-0.415,2.422c0,0.813,0.103,1.568,0.305,2.245c0.201,0.67,0.489,1.256,0.856,1.741c0.363,0.48,0.796,0.856,1.288,1.117c0.486,0.258,1.04,0.39,1.645,0.39c0.788,0,1.464-0.161,2.012-0.477c0.562-0.325,1.049-0.73,1.448-1.203c0.082-0.096,0.214-0.13,0.332-0.088c0.118,0.043,0.197,0.156,0.197,0.282v1.251h1.397v-15.99h-1.515v5.062c0,0.094-0.044,0.183-0.12,0.24s-0.173,0.074-0.264,0.048c-0.313-0.091-0.645-0.164-0.985-0.218C55.073,51.044,54.682,51.017,54.245,51.017z M53.493,61.075c-1.093,0-1.91-0.422-2.428-1.254c-0.49-0.786-0.738-1.837-0.738-3.124c0-1.447,0.379-2.581,1.128-3.369c0.752-0.793,1.771-1.195,3.026-1.195c0.387,0,0.765,0.024,1.122,0.073c0.37,0.05,0.703,0.136,0.99,0.254c0.112,0.046,0.186,0.156,0.186,0.277v6.49c0,0.07-0.024,0.138-0.069,0.192c-0.33,0.395-0.763,0.77-1.288,1.114C54.87,60.893,54.222,61.075,53.493,61.075z M54.48,52.732c-1.1,0-1.947,0.33-2.59,1.008c-0.64,0.673-0.964,1.668-0.964,2.956c0,1.172,0.218,2.117,0.648,2.806c0.407,0.654,1.035,0.972,1.919,0.972c0.611,0,1.148-0.149,1.599-0.443c0.438-0.288,0.803-0.595,1.086-0.916v-6.17c-0.196-0.064-0.416-0.113-0.657-0.146C55.191,52.755,54.841,52.732,54.48,52.732z"/></g></g></g><g><path fill="#fdfcef" d="M41.226,77.408c1.883,0,3.517,0,3.54,0c2.11,0,3.821-1.674,3.821-3.739c0-1.802-1.302-3.305-3.035-3.66c0.02-0.158,0.034-0.317,0.034-0.48c0-2.139-1.772-3.873-3.957-3.873c-1.29,0-2.433,0.607-3.155,1.543c-0.185-2.381-2.358-4.218-4.9-3.913c-1.859,0.223-3.397,1.629-3.739,3.431c-0.11,0.578-0.098,1.139,0.011,1.665c-0.498-0.525-1.208-0.856-1.998-0.856c-1.446,0-2.627,1.102-2.72,2.494c-0.657-0.142-1.371-0.133-2.123,0.143c-1.438,0.528-2.462,1.853-2.522,3.356c-0.085,2.133,1.657,3.889,3.818,3.889c0.164,0,0.741,0,0.874,0h7.934 M34.748,77.408h0.36"/><path fill="#472b29" d="M44.766,77.908h-3.54c-0.276,0-0.5-0.224-0.5-0.5s0.224-0.5,0.5-0.5h3.54c1.831,0,3.321-1.453,3.321-3.239c0-1.524-1.108-2.857-2.636-3.17c-0.256-0.052-0.429-0.293-0.396-0.553c0.018-0.137,0.03-0.276,0.03-0.417c0-1.86-1.551-3.373-3.457-3.373c-1.092,0-2.098,0.491-2.76,1.348c-0.126,0.164-0.339,0.233-0.539,0.173c-0.198-0.059-0.339-0.234-0.355-0.44c-0.079-1.019-0.565-1.943-1.369-2.603c-0.828-0.68-1.884-0.983-2.973-0.853c-1.646,0.197-3.006,1.442-3.307,3.028c-0.094,0.495-0.091,0.989,0.009,1.471c0.045,0.219-0.06,0.441-0.258,0.544c-0.197,0.104-0.44,0.064-0.594-0.099c-0.428-0.451-1.009-0.7-1.635-0.7c-1.169,0-2.145,0.891-2.221,2.027c-0.01,0.145-0.082,0.279-0.198,0.366c-0.116,0.088-0.263,0.12-0.407,0.089c-0.638-0.138-1.242-0.098-1.845,0.124c-1.262,0.464-2.144,1.631-2.195,2.906c-0.035,0.875,0.283,1.708,0.895,2.345c0.635,0.661,1.495,1.024,2.423,1.024h8.808c0.276,0,0.5,0.224,0.5,0.5s-0.224,0.5-0.5,0.5h-8.808c-1.185,0-2.331-0.485-3.144-1.332c-0.803-0.835-1.219-1.928-1.173-3.078c0.067-1.674,1.212-3.203,2.849-3.805c0.611-0.225,1.242-0.305,1.88-0.245c0.344-1.395,1.629-2.424,3.135-2.424c0.493,0,0.977,0.113,1.414,0.323c0.009-0.242,0.037-0.484,0.083-0.726c0.381-2.009,2.096-3.586,4.17-3.834c1.361-0.16,2.685,0.218,3.726,1.072c0.748,0.614,1.278,1.41,1.546,2.302c0.791-0.648,1.786-1.007,2.842-1.007c2.458,0,4.457,1.961,4.457,4.373c0,0.034,0,0.068-0.001,0.103c1.764,0.555,3.003,2.188,3.003,4.038C49.087,76.006,47.148,77.908,44.766,77.908z M35.108,77.908h-0.36c-0.276,0-0.5-0.224-0.5-0.5s0.224-0.5,0.5-0.5h0.36c0.276,0,0.5,0.224,0.5,0.5S35.385,77.908,35.108,77.908z"/><path fill="#472b29" d="M43.058,72.104c-0.018,0-0.036-0.002-0.055-0.006c-0.135-0.03-0.219-0.164-0.189-0.299c0.037-0.164,0.094-0.325,0.169-0.479c0.605-1.225,2.275-1.675,3.723-1.007c0.125,0.058,0.18,0.207,0.122,0.332c-0.058,0.125-0.206,0.18-0.332,0.122c-1.204-0.556-2.579-0.208-3.064,0.774c-0.058,0.118-0.102,0.241-0.129,0.367C43.276,72.025,43.173,72.104,43.058,72.104z"/><g><path fill="#472b29" d="M37.9,77.908h-1.107c-0.276,0-0.5-0.224-0.5-0.5s0.224-0.5,0.5-0.5H37.9c0.276,0,0.5,0.224,0.5,0.5S38.176,77.908,37.9,77.908z"/></g></g><g><path fill="#472b29" d="M50.93 75.991c-.05 0-.098-.024-.127-.07l-1.962-3.106c-.044-.07-.023-.163.047-.207.07-.043.163-.023.207.047l1.962 3.106c.044.07.023.163-.047.207C50.985 75.983 50.957 75.991 50.93 75.991zM51.93 75.991c-.05 0-.098-.024-.127-.07l-1.962-3.106c-.044-.07-.023-.163.047-.207.071-.043.163-.023.207.047l1.962 3.106c.044.07.023.163-.047.207C51.985 75.983 51.957 75.991 51.93 75.991zM52.93 75.991c-.05 0-.098-.024-.127-.07l-1.962-3.106c-.044-.07-.023-.163.047-.207.071-.043.162-.023.207.047l1.962 3.106c.044.07.023.163-.047.207C52.985 75.983 52.957 75.991 52.93 75.991zM53.93 75.991c-.05 0-.098-.024-.127-.07l-1.962-3.106c-.044-.07-.023-.163.047-.207.07-.043.162-.023.207.047l1.962 3.106c.044.07.023.163-.047.207C53.985 75.983 53.957 75.991 53.93 75.991zM54.93 75.991c-.05 0-.098-.024-.127-.07l-1.962-3.106c-.044-.07-.023-.163.047-.207.07-.043.162-.023.207.047l1.962 3.106c.044.07.023.163-.047.207C54.985 75.983 54.957 75.991 54.93 75.991zM55.93 75.991c-.05 0-.098-.024-.127-.07l-1.962-3.106c-.044-.07-.023-.163.047-.207.07-.043.162-.023.207.047l1.962 3.106c.044.07.023.163-.047.207C55.985 75.983 55.957 75.991 55.93 75.991zM56.93 75.991c-.05 0-.098-.024-.127-.07l-1.297-2.052c-.044-.07-.023-.163.047-.207.07-.043.162-.023.207.047l1.297 2.052c.044.07.023.163-.047.207C56.985 75.983 56.957 75.991 56.93 75.991zM57.93 75.991c-.05 0-.098-.024-.127-.07l-.814-1.289c-.044-.07-.023-.163.047-.207.071-.044.162-.023.207.047l.814 1.289c.044.07.023.163-.047.207C57.985 75.983 57.957 75.991 57.93 75.991z"/></g></svg>