<svg xmlns="http://www.w3.org/2000/svg"  viewBox="0 0 100 100" width="100px" height="100px" baseProfile="basic"><path fill="#c7ede6" d="M87.215,56.71C88.35,54.555,89,52.105,89,49.5c0-6.621-4.159-12.257-10.001-14.478 C78.999,35.015,79,35.008,79,35c0-11.598-9.402-21-21-21c-9.784,0-17.981,6.701-20.313,15.757C36.211,29.272,34.638,29,33,29 c-7.692,0-14.023,5.793-14.89,13.252C12.906,43.353,9,47.969,9,53.5C9,59.851,14.149,65,20.5,65c0.177,0,0.352-0.012,0.526-0.022 C21.022,65.153,21,65.324,21,65.5C21,76.822,30.178,86,41.5,86c6.437,0,12.175-2.972,15.934-7.614C59.612,80.611,62.64,82,66,82 c4.65,0,8.674-2.65,10.666-6.518C77.718,75.817,78.837,76,80,76c6.075,0,11-4.925,11-11C91,61.689,89.53,58.727,87.215,56.71z"/><path fill="#fff" d="M31.405,79H21.5c-0.276,0-0.5-0.224-0.5-0.5s0.224-0.5,0.5-0.5h9.905c0.276,0,0.5,0.224,0.5,0.5 S31.682,79,31.405,79z M34.5,79h-1c-0.276,0-0.5-0.224-0.5-0.5s0.224-0.5,0.5-0.5h1c0.276,0,0.5,0.224,0.5,0.5S34.777,79,34.5,79z M39.491,81H30.5c-0.276,0-0.5-0.224-0.5-0.5s0.224-0.5,0.5-0.5h8.991c0.276,0,0.5,0.224,0.5,0.5S39.767,81,39.491,81z M28.5,81 h-1c-0.276,0-0.5-0.224-0.5-0.5s0.224-0.5,0.5-0.5h1c0.276,0,0.5,0.224,0.5,0.5S28.777,81,28.5,81z M25.5,81h-2 c-0.276,0-0.5-0.224-0.5-0.5s0.224-0.5,0.5-0.5h2c0.276,0,0.5,0.224,0.5,0.5S25.777,81,25.5,81z M31.5,83h-2 c-0.276,0-0.5-0.224-0.5-0.5s0.224-0.5,0.5-0.5h2c0.276,0,0.5,0.224,0.5,0.5S31.776,83,31.5,83z M34.5,74c-0.177,0-0.823,0-1,0 c-0.276,0-0.5,0.224-0.5,0.5s0.224,0.5,0.5,0.5c0.177,0,0.823,0,1,0c0.276,0,0.5-0.224,0.5-0.5S34.776,74,34.5,74z M34.5,76 c-0.177,0-4.823,0-5,0c-0.276,0-0.5,0.224-0.5,0.5s0.224,0.5,0.5,0.5c0.177,0,4.823,0,5,0c0.276,0,0.5-0.224,0.5-0.5 S34.776,76,34.5,76z M39.5,78c-0.177,0-2.823,0-3,0c-0.276,0-0.5,0.224-0.5,0.5s0.224,0.5,0.5,0.5c0.177,0,2.823,0,3,0 c0.276,0,0.5-0.224,0.5-0.5S39.776,78,39.5,78z"/><path fill="#fff" d="M66.5,21h-10c-0.276,0-0.5-0.224-0.5-0.5s0.224-0.5,0.5-0.5h10c0.276,0,0.5,0.224,0.5,0.5 S66.776,21,66.5,21z M70.5,21h-2c-0.276,0-0.5-0.224-0.5-0.5s0.224-0.5,0.5-0.5h2c0.276,0,0.5,0.224,0.5,0.5S70.776,21,70.5,21z M75.5,23h-10c-0.276,0-0.5-0.224-0.5-0.5s0.224-0.5,0.5-0.5h10c0.276,0,0.5,0.224,0.5,0.5S75.777,23,75.5,23z M63.5,23h-1 c-0.276,0-0.5-0.224-0.5-0.5s0.224-0.5,0.5-0.5h1c0.276,0,0.5,0.224,0.5,0.5S63.776,23,63.5,23z M60.375,23H58.5 c-0.276,0-0.5-0.224-0.5-0.5s0.224-0.5,0.5-0.5h1.875c0.276,0,0.5,0.224,0.5,0.5S60.651,23,60.375,23z M69.5,19h-5 c-0.276,0-0.5-0.224-0.5-0.5s0.224-0.5,0.5-0.5h5c0.276,0,0.5,0.224,0.5,0.5S69.777,19,69.5,19z M66.5,25h-2 c-0.276,0-0.5-0.224-0.5-0.5s0.224-0.5,0.5-0.5h2c0.276,0,0.5,0.224,0.5,0.5S66.776,25,66.5,25z"/><path fill="#fdfcef" d="M84.875,44.5c0,0,3.64,0,6.125,0s4.5-2.015,4.5-4.5c0-2.333-1.782-4.229-4.055-4.455 C91.467,35.364,91.5,35.187,91.5,35c0-2.485-2.015-4.5-4.5-4.5c-1.438,0-2.703,0.686-3.527,1.736 C83.333,29.6,81.171,27.5,78.5,27.5c-2.761,0-5,2.239-5,5c0,0.446,0.077,0.87,0.187,1.282C73.045,33.005,72.086,32.5,71,32.5 c-1.781,0-3.234,1.335-3.455,3.055C67.364,35.533,67.187,35.5,67,35.5c-2.485,0-4.5,2.015-4.5,4.5s2.015,4.5,4.5,4.5s9.5,0,9.5,0 h5.375V45h3V44.5z"/><path fill="#472b29" d="M78.5,27c-3.033,0-5.5,2.467-5.5,5.5c0,0.016,0,0.031,0,0.047C72.398,32.192,71.71,32,71,32 c-1.831,0-3.411,1.261-3.858,3.005C67.095,35.002,67.048,35,67,35c-2.757,0-5,2.243-5,5s2.243,5,5,5h14.875 c0.276,0,0.5-0.224,0.5-0.5s-0.224-0.5-0.5-0.5H67c-2.206,0-4-1.794-4-4s1.794-4,4-4c0.117,0,0.23,0.017,0.343,0.032l0.141,0.019 c0.021,0.003,0.041,0.004,0.062,0.004c0.246,0,0.462-0.185,0.495-0.437C68.232,34.125,69.504,33,71,33 c0.885,0,1.723,0.401,2.301,1.1c0.098,0.118,0.241,0.182,0.386,0.182c0.078,0,0.156-0.018,0.228-0.056 c0.209-0.107,0.314-0.346,0.254-0.573C74.054,33.218,74,32.852,74,32.5c0-2.481,2.019-4.5,4.5-4.5 c2.381,0,4.347,1.872,4.474,4.263c0.011,0.208,0.15,0.387,0.349,0.45c0.05,0.016,0.101,0.024,0.152,0.024 c0.15,0,0.296-0.069,0.392-0.192C84.638,31.563,85.779,31,87,31c2.206,0,4,1.794,4,4c0,0.117-0.017,0.23-0.032,0.343 l-0.019,0.141c-0.016,0.134,0.022,0.268,0.106,0.373s0.207,0.172,0.34,0.185C93.451,36.247,95,37.949,95,40c0,2.206-1.794,4-4,4 h-6.125c-0.276,0-0.5,0.224-0.5,0.5s0.224,0.5,0.5,0.5H91c2.757,0,5-2.243,5-5c0-2.397-1.689-4.413-4.003-4.877 C91.999,35.082,92,35.041,92,35c0-2.757-2.243-5-5-5c-1.176,0-2.293,0.416-3.183,1.164C83.219,28.76,81.055,27,78.5,27L78.5,27z"/><path fill="#472b29" d="M77,34c-1.403,0-2.609,0.999-2.913,2.341C73.72,36.119,73.301,36,72.875,36 c-1.202,0-2.198,0.897-2.353,2.068C70.319,38.022,70.126,38,69.938,38c-1.529,0-2.811,1.2-2.918,2.732 C67.01,40.87,67.114,40.99,67.251,41c0.006,0,0.012,0,0.018,0c0.13,0,0.24-0.101,0.249-0.232 c0.089-1.271,1.151-2.268,2.419-2.268c0.229,0,0.47,0.042,0.738,0.127c0.022,0.007,0.045,0.01,0.067,0.01 c0.055,0,0.11-0.02,0.156-0.054C70.962,38.537,71,38.455,71,38.375c0-1.034,0.841-1.875,1.875-1.875 c0.447,0,0.885,0.168,1.231,0.473c0.047,0.041,0.106,0.063,0.165,0.063c0.032,0,0.063-0.006,0.093-0.019 c0.088-0.035,0.148-0.117,0.155-0.212C74.623,35.512,75.712,34.5,77,34.5c0.208,0,0.425,0.034,0.682,0.107 c0.023,0.007,0.047,0.01,0.07,0.01c0.109,0,0.207-0.073,0.239-0.182c0.038-0.133-0.039-0.271-0.172-0.309 C77.517,34.04,77.256,34,77,34L77,34z M90.883,35.5c-1.326,0-2.508,0.897-2.874,2.182c-0.038,0.133,0.039,0.271,0.172,0.309 C88.205,37.997,88.228,38,88.25,38c0.109,0,0.209-0.072,0.24-0.182C88.795,36.748,89.779,36,90.883,36 c0.117,0,0.23,0.014,0.342,0.029c0.012,0.002,0.023,0.003,0.035,0.003c0.121,0,0.229-0.092,0.246-0.217 c0.019-0.137-0.077-0.263-0.214-0.281C91.158,35.516,91.022,35.5,90.883,35.5L90.883,35.5z"/><circle cx="53" cy="51" r="23" fill="#848484"/><path fill="#472b29" d="M52.999,28.4C65.461,28.4,75.6,38.538,75.6,50.999C75.6,63.461,65.461,73.6,52.999,73.6 C40.538,73.6,30.4,63.462,30.4,51S40.538,28.4,52.999,28.4 M52.999,27C39.765,27,29,37.766,29,51s10.765,24,23.999,24 C66.234,75,77,64.233,77,50.999S66.234,27,52.999,27L52.999,27z"/><g><path fill="#fff" d="M62.586,44.895c-0.063,0-0.131,0-0.194,0.006c-0.188,0-0.37,0.006-0.552,0.023 c-1.634,2.813-4.652,4.72-8.114,4.806c-0.085,0.006-0.165,0.006-0.251,0.006c-0.376,0-0.752-0.023-1.116-0.068 c-2.317-0.262-4.384-1.344-5.905-2.955c-1.651-1.737-2.659-4.071-2.659-6.656c0-3.16,1.515-5.962,3.855-7.727 c-3.468,1.725-5.848,5.301-5.848,9.435c0,1.811,0.456,3.519,1.264,5.005c0.188,0.347,0.393,0.683,0.621,1.002 c3.12,0.239,5.825,1.953,7.414,4.453c0.421,0.649,0.763,1.349,1.014,2.09v0.006c0.33,0.974,0.507,2.016,0.507,3.103 c0,0.404-0.023,0.797-0.08,1.19v0.006c-0.581,4.783-4.658,8.484-9.6,8.484c-0.666,0-1.315-0.068-1.942-0.194 c1.213,0.495,2.545,0.763,3.935,0.763c4.088,0,7.63-2.323,9.378-5.728c0.216-0.421,0.404-0.86,0.564-1.315 c-0.353-1.002-0.547-2.084-0.547-3.206c0-1.224,0.228-2.397,0.643-3.473v-0.006c0.342-0.883,0.809-1.703,1.378-2.437 c1.07-1.389,2.517-2.477,4.179-3.115l0.006-0.006c1.076-0.416,2.249-0.643,3.473-0.643c4.083,0,7.573,2.522,8.991,6.098 C72.237,48.779,67.864,44.895,62.586,44.895z"/><path fill="#472b29" d="M47.651,32.329c-2.34,1.765-3.855,4.567-3.855,7.727c0,2.585,1.008,4.92,2.659,6.656 c1.52,1.611,3.587,2.693,5.905,2.955c0.364,0.046,0.74,0.068,1.116,0.068c0.085,0,0.165,0,0.251-0.006 c3.462-0.085,6.48-1.993,8.114-4.806c0.182-0.017,0.364-0.023,0.552-0.023c0.063-0.006,0.131-0.006,0.194-0.006 c5.278,0,9.651,3.883,10.414,8.945c-1.418-3.576-4.908-6.098-8.991-6.098c-1.224,0-2.397,0.228-3.473,0.643l-0.006,0.006 c-1.663,0.638-3.109,1.725-4.179,3.115c-0.569,0.734-1.036,1.554-1.378,2.437v0.006c-0.416,1.076-0.643,2.249-0.643,3.473 c0,1.122,0.194,2.203,0.547,3.206c-0.159,0.455-0.347,0.894-0.564,1.315c-1.748,3.405-5.29,5.728-9.378,5.728 c-1.389,0-2.722-0.268-3.935-0.763c0.626,0.125,1.275,0.194,1.942,0.194c4.942,0,9.019-3.701,9.6-8.484v-0.006 c0.057-0.393,0.08-0.786,0.08-1.19c0-1.088-0.177-2.13-0.507-3.103v-0.006c-0.251-0.74-0.592-1.441-1.013-2.09 c-1.589-2.5-4.293-4.214-7.414-4.453c-0.228-0.319-0.433-0.655-0.621-1.002c-0.809-1.486-1.264-3.194-1.264-5.005 C41.803,37.63,44.183,34.054,47.651,32.329 M47.65,31.329c-0.15,0-0.302,0.034-0.445,0.105c-3.949,1.965-6.402,5.923-6.402,10.33 c0,1.921,0.479,3.817,1.386,5.483c0.219,0.405,0.444,0.767,0.685,1.106c0.172,0.241,0.442,0.393,0.737,0.416 c2.705,0.207,5.189,1.7,6.646,3.992c0.375,0.578,0.674,1.19,0.894,1.826c0.005,0.018,0.011,0.036,0.017,0.054 c0.301,0.888,0.454,1.824,0.454,2.782c0,0.382-0.023,0.724-0.069,1.047c-0.003,0.019-0.005,0.039-0.007,0.058 c-0.54,4.32-4.233,7.575-8.604,7.575c-0.58,0-1.168-0.059-1.746-0.174c-0.066-0.013-0.132-0.02-0.197-0.02 c-0.433,0-0.828,0.283-0.957,0.712c-0.149,0.494,0.102,1.019,0.579,1.214c1.36,0.556,2.811,0.837,4.313,0.837 c4.347,0,8.282-2.403,10.268-6.271c0.236-0.46,0.444-0.945,0.618-1.442c0.075-0.215,0.075-0.448-0.001-0.663 c-0.325-0.923-0.49-1.889-0.49-2.873c0-1.076,0.194-2.123,0.576-3.113c0.007-0.019,0.014-0.037,0.02-0.057 c0.302-0.765,0.71-1.482,1.215-2.134c0.971-1.26,2.266-2.226,3.747-2.794c0.025-0.01,0.05-0.02,0.074-0.032 c0.971-0.366,1.995-0.551,3.047-0.551c3.58,0,6.744,2.146,8.061,5.467c0.154,0.389,0.528,0.632,0.929,0.632 c0.086,0,0.174-0.011,0.261-0.035c0.491-0.132,0.804-0.612,0.728-1.115c-0.842-5.585-5.744-9.796-11.403-9.796 c-0.075,0-0.155,0.001-0.231,0.006c-0.206,0.001-0.407,0.008-0.608,0.027c-0.322,0.03-0.609,0.214-0.771,0.493 c-1.524,2.623-4.243,4.234-7.274,4.308c-0.085,0.005-0.14,0.005-0.191,0.005c-0.012,0-0.023,0-0.035,0 c-0.336,0-0.67-0.02-0.992-0.061c-2.027-0.229-3.905-1.169-5.301-2.649c-1.54-1.619-2.386-3.739-2.386-5.97 c0-2.746,1.26-5.271,3.457-6.928c0.412-0.311,0.52-0.885,0.248-1.324C48.313,31.499,47.986,31.329,47.65,31.329L47.65,31.329z M47.651,33.329h0.005H47.651L47.651,33.329z"/></g><g><path fill="#fdfcef" d="M31.5,62.5c0,0,1.567,0,3.5,0s3.5-1.567,3.5-3.5c0-1.781-1.335-3.234-3.055-3.455 C35.473,55.366,35.5,55.187,35.5,55c0-1.933-1.567-3.5-3.5-3.5c-1.032,0-1.95,0.455-2.59,1.165 c-0.384-1.808-1.987-3.165-3.91-3.165c-2.209,0-4,1.791-4,4c0,0.191,0.03,0.374,0.056,0.558C21.128,53.714,20.592,53.5,20,53.5 c-1.228,0-2.245,0.887-2.455,2.055C17.366,55.527,17.187,55.5,17,55.5c-1.933,0-3.5,1.567-3.5,3.5s1.567,3.5,3.5,3.5s7.5,0,7.5,0 V63h7V62.5z"/><path fill="#472b29" d="M33.25,58C33.112,58,33,57.888,33,57.75c0-1.223,0.995-2.218,2.218-2.218 c0.034,0.009,0.737-0.001,1.244,0.136c0.133,0.036,0.212,0.173,0.176,0.306c-0.036,0.134-0.173,0.213-0.306,0.176 c-0.444-0.12-1.1-0.12-1.113-0.118c-0.948,0-1.719,0.771-1.719,1.718C33.5,57.888,33.388,58,33.25,58z M26.5,62 c-0.276,0-0.5,0.224-0.5,0.5s0.224,0.5,0.5,0.5s0.5-0.224,0.5-0.5S26.776,62,26.5,62z"/><path fill="#472b29" d="M35,63h-3.5c-0.276,0-0.5-0.224-0.5-0.5s0.224-0.5,0.5-0.5H35c1.654,0,3-1.346,3-3 c0-1.496-1.125-2.768-2.618-2.959c-0.134-0.018-0.255-0.088-0.336-0.196s-0.115-0.244-0.094-0.377C34.975,55.314,35,55.16,35,55 c0-1.654-1.346-3-3-3c-0.85,0-1.638,0.355-2.219,1c-0.125,0.139-0.321,0.198-0.5,0.148c-0.182-0.049-0.321-0.195-0.36-0.379 C28.58,51.165,27.141,50,25.5,50c-1.93,0-3.5,1.57-3.5,3.5c0,0.143,0.021,0.28,0.041,0.418c0.029,0.203-0.063,0.438-0.242,0.54 s-0.396,0.118-0.556-0.01C20.878,54.155,20.449,54,20,54c-0.966,0-1.792,0.691-1.963,1.644c-0.048,0.267-0.296,0.446-0.569,0.405 C17.314,56.025,17.16,56,17,56c-1.654,0-3,1.346-3,3s1.346,3,3,3h7.5c0.276,0,0.5,0.224,0.5,0.5S24.776,63,24.5,63H17 c-2.206,0-4-1.794-4-4s1.794-4,4-4c0.059,0,0.116,0.002,0.174,0.006C17.588,53.82,18.711,53,20,53 c0.349,0,0.689,0.061,1.011,0.18C21.176,50.847,23.126,49,25.5,49c1.831,0,3.466,1.127,4.153,2.774 C30.333,51.276,31.155,51,32,51c2.206,0,4,1.794,4,4c0,0.048-0.001,0.095-0.004,0.142C37.739,55.59,39,57.169,39,59 C39,61.206,37.206,63,35,63z"/><path fill="#472b29" d="M29.5,62c-0.159,0-0.841,0-1,0c-0.276,0-0.5,0.224-0.5,0.5s0.224,0.5,0.5,0.5c0.159,0,0.841,0,1,0 c0.276,0,0.5-0.224,0.5-0.5S29.776,62,29.5,62z"/></g></svg>