<svg xmlns="http://www.w3.org/2000/svg"  viewBox="0 0 100 100" width="100px" height="100px"><path fill="#c7ede6" d="M88.699,56.287c0.3-0.616,0.566-1.264,0.796-1.943c2.633-7.77-1.349-17.078-9.733-19.325c-0.906-11.384-8.906-19.193-17.941-20.526c-10.341-1.525-19.814,5.044-22.966,15.485c-3.799-1.346-7.501-1.182-10.99,0.857c-1.583,0.732-3.031,1.812-4.33,3.233c-1.907,2.086-3.147,4.719-3.652,7.495c-0.748,0.118-1.483,0.236-2.176,0.484c-4.04,1.449-6.589,4.431-7.288,8.923c-0.435,2.797,0.443,5.587,0.933,6.714c1.935,4.455,6.422,6.98,10.981,6.312c0.227-0.033,0.557,0.069,0.752,0.233c0.241,7.12,3.698,13.417,8.884,17.014c8.321,5.772,19.027,3.994,25.781-3.921c2.894,2.96,6.338,4.398,10.384,3.876c4.023-0.519,7.147-2.739,9.426-6.349c1.053,0.283,2.051,0.691,3.083,0.804c4.042,0.442,7.324-1.165,9.732-4.8c0.922-1.391,1.794-3.194,1.794-6.354C92.169,61.244,90.876,58.277,88.699,56.287z"/><path fill="#fff" d="M18.209 48.041H8.178c-.276 0-.5-.224-.5-.5s.224-.5.5-.5h10.03c.276 0 .5.224.5.5S18.485 48.041 18.209 48.041zM21.089 48.041h-1.445c-.276 0-.5-.224-.5-.5s.224-.5.5-.5h1.445c.276 0 .5.224.5.5S21.366 48.041 21.089 48.041zM25.144 48.041h-2.546c-.276 0-.5-.224-.5-.5s.224-.5.5-.5h2.546c.276 0 .5.224.5.5S25.42 48.041 25.144 48.041zM25.144 49.906h-9.616c-.276 0-.5-.224-.5-.5s.224-.5.5-.5h9.616c.276 0 .5.224.5.5S25.42 49.906 25.144 49.906zM13.796 49.906h-.58c-.276 0-.5-.224-.5-.5s.224-.5.5-.5h.58c.276 0 .5.224.5.5S14.073 49.906 13.796 49.906zM11.42 49.906H9.963c-.276 0-.5-.224-.5-.5s.224-.5.5-.5h1.456c.276 0 .5.224.5.5S11.696 49.906 11.42 49.906zM20.555 46.176h-5.027c-.276 0-.5-.224-.5-.5s.224-.5.5-.5h5.027c.276 0 .5.224.5.5S20.832 46.176 20.555 46.176zM20.555 44.312h-1.257c-.276 0-.5-.224-.5-.5s.224-.5.5-.5h1.257c.276 0 .5.224.5.5S20.832 44.312 20.555 44.312zM17.287 51.771h-1.759c-.276 0-.5-.224-.5-.5s.224-.5.5-.5h1.759c.276 0 .5.224.5.5S17.563 51.771 17.287 51.771z"/><g><path fill="#fdfcef" d="M76.264,51.211c0,0,11.691,0,11.762,0c2.7,0,4.888-2.189,4.888-4.889c0-2.355-1.666-4.321-3.884-4.784c0.026-0.206,0.043-0.415,0.043-0.628c0-2.796-2.267-5.063-5.063-5.063c-1.651,0-3.113,0.794-4.037,2.017c-0.236-3.113-3.017-5.514-6.27-5.116c-2.379,0.291-4.346,2.13-4.784,4.486c-0.14,0.756-0.126,1.489,0.014,2.177c-0.638-0.687-1.546-1.119-2.557-1.119c-1.85,0-3.361,1.441-3.48,3.261c-0.84-0.186-1.754-0.174-2.717,0.188c-1.84,0.691-3.15,2.423-3.227,4.387c-0.109,2.789,2.12,5.085,4.885,5.085c0.21,0,0.948,0,1.118,0h10.151"/><path fill="#472b29" d="M88.026,51.711H76.263c-0.276,0-0.5-0.224-0.5-0.5s0.224-0.5,0.5-0.5h11.763c2.419,0,4.388-1.969,4.388-4.389c0-2.066-1.466-3.873-3.486-4.295c-0.255-0.053-0.427-0.294-0.394-0.553c0.023-0.186,0.039-0.373,0.039-0.565c0-2.516-2.047-4.563-4.562-4.563c-1.439,0-2.766,0.663-3.639,1.818c-0.125,0.167-0.343,0.238-0.539,0.179c-0.2-0.059-0.342-0.235-0.358-0.442c-0.104-1.377-0.778-2.671-1.85-3.549c-1.082-0.887-2.451-1.282-3.86-1.109c-2.166,0.265-3.956,1.943-4.354,4.081c-0.123,0.67-0.119,1.338,0.014,1.986c0.045,0.22-0.062,0.442-0.262,0.545c-0.196,0.103-0.441,0.061-0.595-0.104c-0.574-0.619-1.353-0.959-2.19-0.959c-1.569,0-2.879,1.227-2.981,2.794c-0.01,0.146-0.082,0.28-0.199,0.367c-0.116,0.087-0.266,0.119-0.408,0.088c-0.839-0.186-1.637-0.132-2.433,0.167c-1.669,0.626-2.836,2.209-2.902,3.938c-0.048,1.207,0.386,2.35,1.221,3.217c0.836,0.869,1.959,1.348,3.164,1.348h11.269c0.276,0,0.5,0.224,0.5,0.5s-0.224,0.5-0.5,0.5H61.838c-1.479,0-2.859-0.587-3.885-1.654c-1.025-1.066-1.558-2.469-1.5-3.95c0.083-2.126,1.51-4.069,3.551-4.835c0.801-0.3,1.628-0.399,2.468-0.299c0.377-1.822,1.997-3.182,3.905-3.182c0.685,0,1.354,0.179,1.943,0.509c0-0.384,0.035-0.771,0.107-1.158c0.476-2.562,2.62-4.574,5.215-4.891c1.686-0.206,3.321,0.267,4.615,1.328c1.004,0.823,1.716,1.951,2.038,3.193c1.012-0.916,2.319-1.425,3.714-1.425c3.067,0,5.562,2.496,5.562,5.563c0,0.083-0.002,0.167-0.007,0.249c2.254,0.673,3.848,2.777,3.848,5.164C93.414,49.294,90.997,51.711,88.026,51.711z"/><path fill="#fdfcef" d="M73.431,40.442c-1.808-0.119-3.365,1.13-3.476,2.789c-0.014,0.206-0.005,0.409,0.025,0.606c-0.349-0.394-0.865-0.661-1.458-0.7c-1.085-0.071-2.022,0.645-2.158,1.62c-0.197-0.054-0.403-0.09-0.616-0.104c-1.582-0.104-2.944,0.989-3.042,2.441"/><path fill="#472b29" d="M62.706,47.344c-0.006,0-0.011,0-0.017,0c-0.138-0.009-0.242-0.128-0.232-0.266c0.106-1.587,1.584-2.791,3.308-2.673c0.135,0.009,0.271,0.026,0.408,0.053c0.274-0.967,1.254-1.641,2.366-1.568c0.425,0.028,0.823,0.161,1.163,0.383c0.001-0.019,0.002-0.038,0.004-0.057c0.119-1.793,1.803-3.144,3.741-3.021c0.138,0.009,0.242,0.128,0.232,0.266c-0.008,0.137-0.097,0.252-0.266,0.233c-1.656-0.117-3.107,1.037-3.21,2.557c-0.013,0.182-0.005,0.368,0.023,0.551c0.017,0.11-0.04,0.217-0.141,0.264c-0.1,0.047-0.221,0.023-0.293-0.06c-0.319-0.359-0.789-0.584-1.288-0.617c-0.928-0.062-1.776,0.555-1.894,1.405c-0.011,0.071-0.051,0.134-0.11,0.174c-0.061,0.04-0.136,0.051-0.203,0.033c-0.189-0.052-0.381-0.084-0.566-0.096c-1.445-0.106-2.688,0.895-2.777,2.208C62.946,47.243,62.837,47.344,62.706,47.344z"/><g><path fill="#fdfcef" d="M90.005,42.111c-1.699-0.801-3.664-0.234-4.389,1.267c-0.09,0.186-0.157,0.379-0.201,0.574"/><path fill="#472b29" d="M85.416,44.202c-0.018,0-0.036-0.002-0.055-0.006c-0.135-0.031-0.22-0.165-0.189-0.299c0.049-0.215,0.122-0.427,0.219-0.627c0.784-1.621,2.904-2.242,4.722-1.384c0.125,0.059,0.179,0.208,0.12,0.333c-0.06,0.126-0.21,0.177-0.333,0.12c-1.573-0.741-3.393-0.227-4.059,1.149c-0.08,0.167-0.141,0.341-0.181,0.52C85.633,44.123,85.53,44.202,85.416,44.202z"/></g></g><g><path fill="#fff" d="M71.543 22.046H61.511c-.276 0-.5-.224-.5-.5s.224-.5.5-.5h10.031c.276 0 .5.224.5.5S71.819 22.046 71.543 22.046zM74.423 22.046h-1.446c-.276 0-.5-.224-.5-.5s.224-.5.5-.5h1.446c.276 0 .5.224.5.5S74.7 22.046 74.423 22.046zM78.478 22.046h-2.546c-.276 0-.5-.224-.5-.5s.224-.5.5-.5h2.546c.276 0 .5.224.5.5S78.754 22.046 78.478 22.046zM76.452 18.316h-9.616c-.276 0-.5-.224-.5-.5s.224-.5.5-.5h9.616c.276 0 .5.224.5.5S76.728 18.316 76.452 18.316zM65.104 18.316h-.58c-.276 0-.5-.224-.5-.5s.224-.5.5-.5h.58c.276 0 .5.224.5.5S65.38 18.316 65.104 18.316zM62.727 18.316h-1.456c-.276 0-.5-.224-.5-.5s.224-.5.5-.5h1.456c.276 0 .5.224.5.5S63.004 18.316 62.727 18.316zM73.889 20.181h-5.027c-.276 0-.5-.224-.5-.5s.224-.5.5-.5h5.027c.276 0 .5.224.5.5S74.166 20.181 73.889 20.181z"/><path fill="#fff" d="M73.889 18.316h-1.258c-.276 0-.5-.224-.5-.5s.224-.5.5-.5h1.258c.276 0 .5.224.5.5S74.166 18.316 73.889 18.316zM67.406 20.181h-1.758c-.276 0-.5-.224-.5-.5s.224-.5.5-.5h1.758c.276 0 .5.224.5.5S67.682 20.181 67.406 20.181z"/></g><g><path fill="#c372d6" d="M66.413,75.865H36.7c-3.766,0-6.847-3.081-6.847-6.847V39.305c0-3.766,3.081-6.847,6.847-6.847h29.713c3.766,0,6.847,3.081,6.847,6.847v29.713C73.26,72.784,70.179,75.865,66.413,75.865z"/><path fill="#472b29" d="M66.413,76.565H36.7c-4.161,0-7.547-3.386-7.547-7.547V39.305c0-4.162,3.386-7.547,7.547-7.547h29.713c4.162,0,7.548,3.386,7.548,7.547v29.713C73.961,73.18,70.575,76.565,66.413,76.565z M36.7,33.158c-3.39,0-6.146,2.757-6.146,6.147v29.713c0,3.39,2.757,6.147,6.146,6.147h29.713c3.39,0,6.147-2.757,6.147-6.147V39.305c0-3.39-2.758-6.147-6.147-6.147H36.7z"/><path fill="#472b29" d="M64.505 73.115H38.607c-3.311 0-6.003-2.693-6.003-6.004V41.212c0-3.311 2.692-6.004 6.003-6.004H63.27c.193 0 .35.157.35.35s-.156.35-.35.35H38.607c-2.924 0-5.304 2.379-5.304 5.304v25.898c0 2.924 2.38 5.304 5.304 5.304h25.898c2.925 0 5.305-2.379 5.305-5.304V52.784c0-.193.156-.35.35-.35s.35.157.35.35v14.327C70.509 70.421 67.816 73.115 64.505 73.115zM70.16 51.066c-.193 0-.35-.157-.35-.35V47.96c0-.193.156-.35.35-.35s.35.157.35.35v2.756C70.509 50.91 70.353 51.066 70.16 51.066z"/><g><path fill="#472b29" d="M70.16,46.933c-0.193,0-0.35-0.157-0.35-0.35v-1.378c0-0.193,0.156-0.35,0.35-0.35s0.35,0.157,0.35,0.35v1.378C70.509,46.776,70.353,46.933,70.16,46.933z"/></g></g><g><path fill="#fdfcef" d="M41.459,77.816c1.883,0,3.517,0,3.54,0c2.11,0,3.821-1.674,3.821-3.739c0-1.802-1.302-3.305-3.035-3.66c0.02-0.158,0.034-0.317,0.034-0.48c0-2.139-1.772-3.873-3.957-3.873c-1.29,0-2.433,0.607-3.155,1.543c-0.185-2.381-2.358-4.218-4.9-3.913c-1.859,0.223-3.397,1.629-3.739,3.431c-0.11,0.578-0.098,1.139,0.011,1.665c-0.498-0.525-1.208-0.856-1.998-0.856c-1.446,0-2.627,1.102-2.72,2.494c-0.657-0.142-1.371-0.133-2.123,0.143c-1.438,0.528-2.462,1.853-2.522,3.356c-0.085,2.133,1.657,3.889,3.818,3.889c0.164,0,0.741,0,0.874,0h7.934 M34.981,77.816h0.36"/><path fill="#472b29" d="M44.999,78.315h-3.54c-0.276,0-0.5-0.224-0.5-0.5s0.224-0.5,0.5-0.5h3.54c1.831,0,3.32-1.453,3.32-3.239c0-1.524-1.108-2.857-2.636-3.17c-0.257-0.052-0.429-0.294-0.396-0.554c0.018-0.137,0.03-0.274,0.03-0.416c0-1.86-1.551-3.373-3.457-3.373c-1.093,0-2.099,0.491-2.76,1.348c-0.126,0.165-0.342,0.232-0.538,0.174c-0.198-0.059-0.34-0.234-0.355-0.44c-0.079-1.019-0.565-1.943-1.37-2.603c-0.827-0.68-1.888-0.984-2.973-0.853c-1.646,0.197-3.006,1.442-3.308,3.028c-0.094,0.494-0.09,0.989,0.01,1.471c0.046,0.219-0.06,0.441-0.258,0.544c-0.197,0.104-0.439,0.063-0.594-0.099c-0.429-0.452-1.01-0.7-1.636-0.7c-1.169,0-2.146,0.891-2.222,2.028c-0.01,0.145-0.082,0.278-0.198,0.366c-0.117,0.087-0.264,0.12-0.407,0.089c-0.638-0.14-1.242-0.098-1.845,0.124c-1.262,0.464-2.144,1.632-2.193,2.906c-0.035,0.875,0.282,1.708,0.894,2.344c0.635,0.661,1.495,1.025,2.424,1.025h8.808c0.276,0,0.5,0.224,0.5,0.5s-0.224,0.5-0.5,0.5h-8.808c-1.186,0-2.332-0.485-3.146-1.332c-0.802-0.835-1.218-1.928-1.172-3.077c0.066-1.674,1.212-3.203,2.849-3.805c0.611-0.225,1.242-0.309,1.881-0.244c0.345-1.396,1.63-2.424,3.136-2.424c0.499,0,0.979,0.11,1.413,0.319c0.009-0.24,0.036-0.481,0.082-0.721c0.382-2.01,2.098-3.586,4.171-3.835c1.364-0.161,2.686,0.218,3.727,1.073c0.747,0.613,1.278,1.409,1.546,2.301c0.791-0.648,1.785-1.006,2.843-1.006c2.458,0,4.457,1.962,4.457,4.373c0,0.034-0.001,0.068-0.002,0.102c1.765,0.555,3.003,2.188,3.003,4.038C49.319,76.414,47.38,78.315,44.999,78.315z M35.34,78.315h-0.359c-0.276,0-0.5-0.224-0.5-0.5s0.224-0.5,0.5-0.5h0.359c0.276,0,0.5,0.224,0.5,0.5S35.617,78.315,35.34,78.315z"/><path fill="#472b29" d="M43.292,72.513c-0.018,0-0.036-0.002-0.055-0.006c-0.135-0.03-0.22-0.164-0.189-0.298c0.038-0.168,0.095-0.33,0.17-0.48c0.604-1.225,2.275-1.674,3.721-1.006c0.126,0.058,0.181,0.207,0.122,0.332c-0.058,0.125-0.208,0.179-0.331,0.122c-1.206-0.559-2.579-0.209-3.063,0.774c-0.058,0.115-0.102,0.238-0.13,0.367C43.509,72.434,43.407,72.513,43.292,72.513z"/><g><path fill="#472b29" d="M38.132,78.315h-1.107c-0.276,0-0.5-0.224-0.5-0.5s0.224-0.5,0.5-0.5h1.107c0.276,0,0.5,0.224,0.5,0.5S38.409,78.315,38.132,78.315z"/></g></g><g><path fill="#fdfcee" d="M52.337,50.306c0,0.807-0.177,1.535-0.53,2.182c-0.353,0.647-0.845,1.198-1.475,1.652c-0.631,0.454-1.375,0.803-2.233,1.047c-0.857,0.244-1.783,0.366-2.775,0.366h-1.16v6.634h-2.321v-16.8h4.061c0.908,0,1.753,0.101,2.535,0.302s1.463,0.509,2.043,0.92c0.58,0.413,1.034,0.925,1.362,1.539C52.173,48.764,52.337,49.482,52.337,50.306z M50.016,50.281c0-0.555-0.109-1.022-0.328-1.4c-0.219-0.378-0.517-0.689-0.896-0.933c-0.378-0.244-0.824-0.42-1.337-0.53c-0.513-0.109-1.055-0.164-1.627-0.164h-1.665v6.432H45.4c0.673,0,1.291-0.076,1.854-0.227c0.564-0.151,1.051-0.374,1.464-0.669c0.411-0.294,0.732-0.651,0.958-1.072C49.902,51.298,50.016,50.819,50.016,50.281z"/><path fill="#472b29" d="M44.164,62.487h-2.32c-0.166,0-0.3-0.134-0.3-0.3v-16.8c0-0.166,0.134-0.3,0.3-0.3h4.061c0.93,0,1.808,0.104,2.61,0.312c0.812,0.209,1.533,0.535,2.143,0.966c0.616,0.438,1.104,0.991,1.453,1.642c0.351,0.658,0.527,1.431,0.527,2.298c0,0.853-0.19,1.635-0.566,2.326c-0.374,0.684-0.9,1.273-1.563,1.752c-0.656,0.472-1.439,0.84-2.327,1.092c-0.878,0.25-1.839,0.377-2.856,0.377h-0.86v6.334C44.463,62.353,44.33,62.487,44.164,62.487z M42.143,61.888h1.721v-6.334c0-0.166,0.134-0.3,0.3-0.3h1.16c0.961,0,1.867-0.12,2.692-0.355c0.821-0.233,1.541-0.57,2.14-1.001c0.591-0.426,1.058-0.948,1.388-1.552c0.328-0.602,0.494-1.288,0.494-2.039c0-0.768-0.154-1.446-0.457-2.016c-0.304-0.569-0.732-1.052-1.271-1.436c-0.549-0.389-1.203-0.683-1.945-0.875c-0.753-0.194-1.581-0.293-2.46-0.293h-3.761V61.888z M45.4,53.986h-1.236c-0.166,0-0.3-0.134-0.3-0.3v-6.432c0-0.166,0.134-0.3,0.3-0.3h1.665c0.589,0,1.156,0.057,1.689,0.17c0.546,0.117,1.029,0.309,1.437,0.57c0.418,0.271,0.752,0.619,0.993,1.036c0.244,0.423,0.368,0.944,0.368,1.55c0,0.587-0.127,1.119-0.377,1.581c-0.246,0.458-0.599,0.853-1.047,1.174c-0.442,0.314-0.967,0.555-1.561,0.714C46.743,53.907,46.093,53.986,45.4,53.986z M44.463,53.387H45.4c0.641,0,1.238-0.073,1.776-0.217c0.523-0.141,0.984-0.35,1.367-0.623c0.372-0.267,0.665-0.593,0.868-0.97c0.202-0.374,0.305-0.81,0.305-1.296c0-0.499-0.097-0.919-0.288-1.25c-0.193-0.333-0.462-0.613-0.799-0.832c-0.346-0.222-0.762-0.387-1.236-0.488c-0.491-0.104-1.018-0.157-1.564-0.157h-1.365V53.387z"/><g><path fill="#fdfcee" d="M61.342,51.946h-0.58c-0.892,0-1.661,0.168-2.308,0.504c-0.647,0.337-1.198,0.883-1.652,1.64v8.097h-2.27V50.079h2.169V52.4c0.353-0.807,0.82-1.421,1.4-1.841c0.58-0.42,1.349-0.631,2.308-0.631c0.37,0,0.681,0.042,0.933,0.126V51.946z"/><path fill="#472b29" d="M56.802,62.487h-2.271c-0.166,0-0.3-0.134-0.3-0.3V50.079c0-0.166,0.134-0.3,0.3-0.3h2.169c0.166,0,0.3,0.134,0.3,0.3v1.178c0.271-0.377,0.58-0.692,0.925-0.941c0.63-0.457,1.466-0.688,2.483-0.688c0.398,0,0.744,0.047,1.027,0.141c0.123,0.041,0.206,0.155,0.206,0.285v1.892c0,0.166-0.134,0.3-0.3,0.3h-0.58c-0.838,0-1.568,0.159-2.171,0.471c-0.574,0.299-1.075,0.789-1.489,1.458v8.013C57.102,62.353,56.968,62.487,56.802,62.487z M54.832,61.888h1.671V54.09c0-0.054,0.015-0.107,0.042-0.154c0.48-0.801,1.076-1.391,1.771-1.752c0.688-0.357,1.512-0.538,2.447-0.538h0.28v-1.362c-0.184-0.038-0.396-0.057-0.634-0.057c-0.889,0-1.605,0.193-2.132,0.574c-0.533,0.386-0.972,0.965-1.302,1.718c-0.057,0.13-0.199,0.2-0.336,0.173c-0.139-0.029-0.238-0.151-0.238-0.293v-2.021h-1.569V61.888z"/></g></g><g><path fill="#472b29" d="M50.98 76.021c-.05 0-.099-.024-.127-.07l-1.963-3.106c-.044-.07-.023-.163.047-.207.069-.044.163-.023.207.047l1.963 3.106c.044.07.023.163-.047.207C51.036 76.013 51.007 76.021 50.98 76.021zM51.98 76.021c-.05 0-.099-.024-.127-.07l-1.963-3.106c-.044-.07-.023-.163.047-.207.069-.044.163-.023.207.047l1.963 3.106c.044.07.023.163-.047.207C52.036 76.013 52.007 76.021 51.98 76.021zM52.98 76.021c-.05 0-.099-.024-.127-.07l-1.963-3.106c-.044-.07-.023-.163.047-.207.069-.044.163-.023.207.047l1.963 3.106c.044.07.023.163-.047.207C53.036 76.013 53.007 76.021 52.98 76.021zM53.98 76.021c-.05 0-.099-.024-.127-.07l-1.963-3.106c-.044-.07-.023-.163.047-.207.069-.044.163-.023.207.047l1.963 3.106c.044.07.023.163-.047.207C54.036 76.013 54.007 76.021 53.98 76.021zM54.98 76.021c-.05 0-.099-.024-.127-.07l-1.963-3.106c-.044-.07-.023-.163.047-.207.068-.044.163-.023.207.047l1.963 3.106c.044.07.023.163-.047.207C55.036 76.013 55.007 76.021 54.98 76.021zM55.98 76.021c-.05 0-.099-.024-.127-.07l-1.963-3.106c-.044-.07-.023-.163.047-.207.068-.044.163-.023.207.047l1.963 3.106c.044.07.023.163-.047.207C56.036 76.013 56.007 76.021 55.98 76.021zM56.98 76.021c-.05 0-.099-.024-.127-.07l-1.297-2.052c-.044-.07-.023-.163.047-.207.069-.044.163-.023.207.047l1.297 2.052c.044.07.023.163-.047.207C57.036 76.013 57.007 76.021 56.98 76.021zM57.98 76.021c-.05 0-.099-.024-.127-.07l-.814-1.289c-.044-.07-.023-.163.047-.207.069-.043.163-.024.207.047l.814 1.289c.044.07.023.163-.047.207C58.036 76.013 58.007 76.021 57.98 76.021z"/></g></svg>