<?xml version="1.0" standalone="no"?>
<!DOCTYPE svg PUBLIC "-//W3C//DTD SVG 20010904//EN"
 "http://www.w3.org/TR/2001/REC-SVG-20010904/DTD/svg10.dtd">
<svg version="1.0" xmlns="http://www.w3.org/2000/svg"
 width="100.000000pt" height="100.000000pt" viewBox="0 0 100.000000 100.000000"
 preserveAspectRatio="xMidYMid meet">

<g transform="translate(0.000000,100.000000) scale(0.100000,-0.100000)"
fill="#000000" stroke="none">
<path d="M666 781 c-11 -12 -25 -16 -42 -13 -14 2 -32 -2 -42 -11 -11 -9 -45
-16 -93 -19 -46 -3 -91 -12 -115 -24 l-39 -19 -3 -101 c-3 -100 -3 -101 -26
-97 -13 3 -30 -2 -41 -13 -9 -10 -31 -25 -48 -34 -74 -40 -61 -84 24 -86 l54
-1 -55 6 c-48 5 -55 9 -58 29 -3 17 2 25 17 29 12 3 21 9 21 14 0 5 8 9 18 9
9 0 23 9 30 20 14 23 50 27 58 5 4 -10 14 -13 28 -9 14 3 27 -1 35 -10 8 -9
10 -16 5 -16 -4 0 0 -6 10 -13 27 -20 16 -51 -19 -58 -28 -6 -28 -7 -5 -8 15
0 31 4 37 10 15 15 113 1 120 -17 3 -8 0 -21 -7 -29 -6 -8 -9 -18 -6 -24 10
-15 -17 -19 -73 -10 -61 9 -97 29 -106 59 -3 11 -10 20 -15 20 -12 0 -1 -30
18 -53 23 -26 117 -50 174 -45 40 4 51 2 56 -11 8 -24 25 -31 40 -19 10 9 18
9 32 0 25 -15 50 -5 50 19 0 12 10 23 25 29 28 11 31 20 13 38 -10 10 -10 17
0 32 15 24 5 50 -19 50 -12 0 -19 7 -19 19 0 10 -7 21 -15 25 -20 7 -22 166
-2 166 9 0 9 2 0 8 -6 4 -13 21 -15 37 -2 24 -11 34 -46 50 -49 23 -50 40 -1
40 21 -1 39 6 47 16 7 10 22 20 35 22 21 4 21 4 1 6 -11 0 -28 -7 -38 -18z
m-48 -77 c77 -31 8 -76 -118 -76 -165 0 -208 71 -56 91 63 9 131 3 174 -15z
m-223 -79 c22 -8 69 -14 105 -14 36 0 83 6 105 14 22 8 43 15 48 15 8 0 9 -46
1 -77 -8 -28 -70 -53 -135 -53 -32 0 -48 -4 -44 -10 8 -13 97 -3 144 16 43 18
41 19 41 -18 0 -49 -14 -66 -40 -50 -20 12 -53 5 -51 -11 3 -21 -1 -27 -19
-27 -11 0 -20 -4 -20 -10 0 -5 -21 -10 -47 -10 -46 0 -49 2 -67 41 -15 29 -28
42 -48 46 -23 4 -28 11 -28 35 0 25 2 27 19 18 30 -16 36 -12 11 8 -21 17 -42
102 -24 102 5 0 27 -7 49 -15z m289 -208 c2 -10 13 -21 23 -23 14 -4 18 -15
18 -49 0 -34 -4 -45 -18 -49 -10 -2 -21 -14 -24 -26 -4 -15 -10 -19 -22 -14
-20 8 -32 8 -52 0 -12 -5 -18 -1 -22 14 -3 12 -15 24 -27 27 -15 4 -19 10 -14
22 8 20 8 32 0 52 -5 12 -1 18 14 22 12 3 24 14 26 24 4 14 15 18 49 18 34 0
45 -4 49 -18z"/>
<path d="M418 508 c5 -5 16 -8 23 -6 8 3 3 7 -10 11 -17 4 -21 3 -13 -5z"/>
<path d="M596 399 c-15 -11 -26 -30 -25 -42 0 -15 2 -17 6 -7 17 45 73 66 101
38 17 -17 15 -64 -4 -82 -21 -22 -50 -20 -75 5 -26 26 -39 16 -14 -11 11 -12
31 -20 50 -20 74 0 95 98 28 129 -32 15 -36 14 -67 -10z"/>
<path d="M611 366 c-26 -31 14 -71 45 -45 8 7 14 22 12 33 -4 26 -40 33 -57
12z m39 -22 c0 -8 -7 -14 -15 -14 -15 0 -21 21 -9 33 10 9 24 -2 24 -19z"/>
<path d="M742 764 c8 -23 16 -30 30 -26 10 2 20 -2 24 -12 3 -9 14 -16 23 -16
9 0 23 -6 30 -12 11 -11 12 -10 6 0 -4 7 -17 18 -28 23 -42 19 -68 36 -82 55
-13 17 -13 16 -3 -12z"/>
<path d="M855 660 c-7 -22 -26 -28 -100 -33 -47 -3 -46 -4 13 -5 50 -2 66 2
82 18 11 11 20 25 20 30 0 17 -8 11 -15 -10z"/>
</g>
</svg>
